Coordinates
version=1
nRows=11
nColumns=40
inDegrees=yes

Units are S.I. units (second, meters, Newtons, ...)
Angles are in degrees.

endheader
time	pelvis_tilt	pelvis_list	pelvis_rotation	pelvis_tx	pelvis_ty	pelvis_tz	hip_flexion_r	hip_adduction_r	hip_rotation_r	knee_angle_r	knee_angle_r_beta	ankle_angle_r	subtalar_angle_r	mtp_angle_r	hip_flexion_l	hip_adduction_l	hip_rotation_l	knee_angle_l	knee_angle_l_beta	ankle_angle_l	subtalar_angle_l	mtp_angle_l	lumbar_extension	lumbar_bending	lumbar_rotation	arm_flex_r	arm_add_r	arm_rot_r	elbow_flex_r	pro_sup_r	wrist_flex_r	wrist_dev_r	arm_flex_l	arm_add_l	arm_rot_l	elbow_flex_l	pro_sup_l	wrist_flex_l	wrist_dev_l
     14.80414286	     -2.56253842	     -5.91815586	      2.13715022	      0.93190267	      0.93140638	      0.49515660	      7.63683254	      5.40477113	    -16.75122513	     14.54313041	     14.54313041	     12.77609808	      5.95555517	     -4.46586361	     33.53854909	    -11.91962759	     -0.57757256	     32.33737060	     32.33737060	      8.63331984	    -16.09882866	     15.74292456	    -11.30286749	      7.96642706	      5.74598551	     21.77610085	    -17.09636320	     -1.00529202	     65.45344854	     45.11885573	      0.00000000	      0.00000000	     -7.81311953	     -7.64733950	    -13.25107038	     39.99936096	     46.98741565	      0.00000000	      0.00000000
     14.81578571	     -2.70078999	     -5.80823225	      2.25589623	      0.93102915	      0.93120204	      0.49467574	      7.15183995	      5.33556133	    -16.74589040	     14.16557757	     14.16557757	     13.01134359	      6.03715309	     -4.54353222	     33.44584745	    -11.56983523	     -0.69837425	     29.17284806	     29.17284806	      8.37270780	    -14.43238817	     15.66955391	    -11.17870252	      7.90997722	      5.69037718	     23.07532192	    -16.59947666	     -0.90511751	     66.60458341	     45.08332779	      0.00000000	      0.00000000	     -8.12760303	     -7.67339486	    -13.19254677	     39.55621395	     46.97105921	      0.00000000	      0.00000000
     14.82742857	     -2.60451059	     -5.79921292	      2.38937828	      0.93042587	      0.93120098	      0.49425471	      6.24291531	      5.43182896	    -16.82223273	     13.48173527	     13.48173527	     13.14065743	      6.35309987	     -4.70335447	     33.11453463	    -11.46374754	     -1.20403028	     26.23589643	     26.23589643	      7.61633975	    -12.19970348	     13.69891852	    -11.32100133	      7.97367109	      5.27633148	     24.39147386	    -15.91780142	     -0.32268448	     68.79751494	     45.00176665	      0.00000000	      0.00000000	     -8.41565391	     -7.71268588	    -13.03082713	     38.41568153	     46.92757989	      0.00000000	      0.00000000
     14.83907143	     -2.70875920	     -5.74892788	      2.46946692	      0.92966327	      0.93089345	      0.49372018	      5.75667682	      5.41971657	    -16.74940840	     13.18694838	     13.18694838	     13.35973945	      6.40985908	     -4.85493161	     33.01857348	    -11.24083532	     -1.63115135	     23.58423836	     23.58423836	      7.06256339	    -10.24449406	     12.79985136	    -11.28198909	      7.93392669	      5.38381535	     25.54979923	    -15.59663738	     -0.02147106	     70.12818402	     44.95812744	      0.00000000	      0.00000000	     -8.51192860	     -7.79333834	    -12.89960914	     37.84877247	     46.89753871	      0.00000000	      0.00000000
     14.85071429	     -2.82971077	     -5.81218429	      2.56396904	      0.92899502	      0.93041431	      0.49318422	      5.21426426	      5.55690857	    -16.72898983	     12.73172157	     12.73172157	     13.54059641	      6.50389877	     -5.01050257	     33.02160579	    -11.17475372	     -2.30281631	     21.31320915	     21.31320915	      6.22121534	     -8.20205051	     10.90351043	    -11.15469675	      8.02840907	      5.50126388	     26.54491370	    -15.44519782	      0.54441275	     71.94486360	     44.90034776	      0.00000000	      0.00000000	     -8.50584860	     -7.83588336	    -12.51887416	     36.97267808	     46.82282299	      0.00000000	      0.00000000
     14.86235714	     -2.95833354	     -5.75645172	      2.65643770	      0.92827618	      0.92999650	      0.49242024	      4.81222195	      5.50265587	    -16.69794965	     12.55763492	     12.55763492	     13.79688301	      6.47996654	     -5.06629092	     33.01552633	    -10.87250631	     -2.71189397	     19.38104905	     19.38104905	      5.90401418	     -6.89252848	     11.06730002	    -11.02292539	      7.97229390	      5.55379956	     27.77112964	    -14.98917685	      0.61206581	     72.91131888	     44.87443322	      0.00000000	      0.00000000	     -8.72348877	     -7.78021826	    -12.38636565	     36.68909889	     46.79824441	      0.00000000	      0.00000000
     14.87400000	     -3.00095309	     -5.70933377	      2.73277457	      0.92777730	      0.92960530	      0.49163834	      4.23922874	      5.48266327	    -16.64022190	     12.25771793	     12.25771793	     14.07092018	      6.56197165	     -5.05654920	     32.99164045	    -10.65608642	     -3.40205067	     17.98919442	     17.98919442	      5.68278485	     -5.57399183	     10.93999774	    -10.99842914	      7.92515968	      5.40084096	     29.06884137	    -14.38656997	      0.89039709	     74.32598680	     44.82932505	      0.00000000	      0.00000000	     -8.94264262	     -7.84886522	    -12.15567660	     36.22455282	     46.75849375	      0.00000000	      0.00000000
     14.88564286	     -3.06726527	     -5.73429543	      2.81780255	      0.92733834	      0.92903538	      0.49072053	      3.71086550	      5.52391587	    -16.59064092	     12.00173040	     12.00173040	     14.38870651	      6.62910255	     -4.98478190	     33.07529207	    -10.50301537	     -4.08650615	     17.09584825	     17.09584825	      5.44695505	     -4.59884794	     10.62175321	    -10.94919445	      7.96782413	      5.36629376	     30.21382307	    -14.03714915	      1.37133023	     75.92424769	     44.77566993	      0.00000000	      0.00000000	     -9.10517465	     -7.85604097	    -11.77163085	     35.72620419	     46.69587110	      0.00000000	      0.00000000
     14.89728571	     -3.12370440	     -5.71255579	      2.88130751	      0.92705546	      0.92842995	      0.48972371	      3.24196943	      5.48749432	    -16.52522961	     11.90780233	     11.90780233	     14.73695785	      6.60781955	     -4.97420270	     33.07035264	    -10.27367539	     -4.58664923	     16.49741054	     16.49741054	      5.28212376	     -4.29657680	     10.59934226	    -10.83104742	      7.93810416	      5.36594852	     31.37107765	    -13.64182006	      1.60989574	     77.11270450	     44.73845264	      0.00000000	      0.00000000	     -9.26723615	     -7.83900304	    -11.54948470	     35.42736585	     46.66034600	      0.00000000	      0.00000000
     14.90892857	     -3.19628890	     -5.70701716	      2.94222169	      0.92691268	      0.92765503	      0.48864302	      2.77350307	      5.46608818	    -16.43042288	     11.79931173	     11.79931173	     15.15473695	      6.60619997	     -4.81081394	     33.10949946	    -10.06737727	     -4.98866420	     16.34712046	     16.34712046	      5.05905987	     -4.37027627	     10.34369997	    -10.73415996	      7.91849889	      5.28681334	     32.38189936	    -13.32512906	      2.19783793	     78.88316044	     44.67643345	      0.00000000	      0.00000000	     -9.47582557	     -7.87582553	    -11.11072331	     35.02811146	     46.59215431	      0.00000000	      0.00000000
     14.92057143	     -3.25488436	     -5.70249646	      2.95128061	      0.92690583	      0.92676449	      0.48749654	      2.33994325	      5.41718393	    -16.31793666	     11.81637376	     11.81637376	     15.55698037	      6.58439278	     -4.84200953	     33.08455263	     -9.89154075	     -5.28925146	     16.52726840	     16.52726840	      4.92180134	     -4.73924957	     10.30541371	    -10.58090014	      7.87393218	      5.49742430	     33.49510599	    -13.15002391	      2.28825345	     79.69602945	     44.65447742	      0.00000000	      0.00000000	     -9.57180307	     -7.82532085	    -10.97609926	     34.90897647	     46.57114087	      0.00000000	      0.00000000
